<?xml version="1.0"?>
<svg xmlns="http://www.w3.org/2000/svg" xmlns:xlink="http://www.w3.org/1999/xlink" version="1.1" id="Capa_1" x="0px" y="0px" viewBox="0 0 311.539 311.539" style="enable-background:new 0 0 311.539 311.539;" xml:space="preserve" width="512px" height="512px"><g><g>
	<path d="M218.412,93.127c-7.811-7.811-20.475-7.811-28.285,0l-34.357,34.357l-34.357-34.357c-7.811-7.811-20.475-7.811-28.285,0   c-7.81,7.811-7.81,20.475,0,28.285l34.357,34.357l-34.357,34.357c-7.81,7.811-7.81,20.475,0,28.285   c7.809,7.809,20.474,7.811,28.285,0l34.357-34.357l34.357,34.357c7.809,7.809,20.474,7.811,28.285,0   c7.81-7.811,7.81-20.475,0-28.285l-34.357-34.357l34.357-34.357C226.222,113.602,226.222,100.938,218.412,93.127z" data-original="#000000" class="active-path" data-old_color="#000000" fill="#FF0000"/>
	<path d="M155.77,0C69.74,0,0,69.74,0,155.77s69.74,155.77,155.77,155.77s155.77-69.74,155.77-155.77S241.799,0,155.77,0z    M155.77,271.539C91.784,271.539,40,219.761,40,155.77C40,91.784,91.778,40,155.77,40c63.986,0,115.77,51.778,115.77,115.77   C271.539,219.755,219.761,271.539,155.77,271.539z" data-original="#000000" class="active-path" data-old_color="#000000" fill="#FF0000"/>
</g></g> </svg>
